<?xml version="1.0" encoding="UTF-8"?>
<svg id="a" data-name="Layer 1" xmlns="http://www.w3.org/2000/svg" width="32" height="32" viewBox="0 0 32 32">
  <defs>
    <style>
      .b {
        fill: #302c2c;
      }
    </style>
  </defs>
  <path class="b" d="M15.9844,27.3359c-2.288,0-4.5759,.0009-6.8639-.0006-.6951-.0005-.9271-.2323-.9275-.9302-.0015-2.849-.0052-5.6979,.0057-8.5468,.0013-.3403-.0411-.4929-.4473-.5622-3.0799-.5251-5.2882-3.2828-5.2273-6.4723,.058-3.0333,2.406-5.6515,5.4598-6.1009,.7546-.111,1.5012-.0945,2.241,.0771,.2366,.0549,.3643,.0009,.5092-.2004,2.681-3.7249,7.8126-3.722,10.5145,.0065,.1489,.2055,.2815,.2386,.5128,.1912,4.2074-.8613,8.0326,2.5121,7.6948,6.7794-.225,2.8425-2.4667,5.2793-5.3018,5.7344-.3071,.0493-.3748,.158-.3735,.4453,.0133,2.8636,.0142,5.7273,.0166,8.591,.0007,.7861-.2119,.9991-.9933,.9995-2.2733,.0011-4.5466,.0004-6.8198,.0004,0-.0038,0-.0076,0-.0114Zm-.0188-4.2568c2.008,0,4.0161-.0078,6.024,.0081,.314,.0025,.3859-.0789,.3835-.3872-.0152-1.9489-.0096-3.8979-.0062-5.8469,.001-.5924,.2358-.8334,.8166-.8648,3.1388-.1694,5.2587-2.7734,4.7656-5.8537-.4088-2.5536-3.0894-4.4667-5.5941-4.0086-.2597,.0475-.298,.1184-.2327,.3582,.0964,.3542,.1642,.718,.217,1.0817,.0916,.6302,.0828,.6315-.5341,.6311-.1476,0-.2973-.0154-.4425,.0031-.3033,.0386-.4122-.0382-.4369-.3866-.1783-2.5169-2.2786-4.5098-4.782-4.5744-2.6913-.0695-4.8953,1.9399-5.1024,4.6634-.0161,.2123-.0493,.2957-.2929,.3021-1.2376,.0324-1.2644,.0104-1.029-1.211,.0279-.1446,.0444-.2967,.103-.429,.1386-.3128,.0545-.4577-.2901-.4522-.0728,.0012-.1456-.0227-.219-.0288-2.738-.2293-5.2066,1.8961-5.3635,4.6173-.1613,2.7969,1.9696,5.1715,4.7452,5.2877,.7014,.0294,.9132,.2468,.9142,.9493,.0027,1.9194,.0105,3.8389-.0027,5.7583-.0021,.302,.0597,.3942,.3792,.3916,1.9931-.0163,3.9865-.0082,5.9798-.0087Zm-.0246,2.8313c1.8143,0,3.6285,0,5.4428,0,.9799,0,.9658,0,.9852-.9733,.0066-.3324-.0638-.4386-.4234-.4371-3.776,.015-7.5521,.0089-11.3281,.0086-1.004,0-.9901,0-1.0076,.9954-.0056,.3186,.0574,.4186,.4016,.4151,1.9763-.0197,3.953-.0096,5.9295-.0088Z"/>
  <path class="b" d="M15.9773,30.1826c-2.922,.0003-5.8441-.007-8.766,.0095-.3732,.0021-.4656-.0986-.4568-.4635,.0233-.9719,.0052-.974,.9956-.9747,5.6669-.0042,11.3338-.0023,17.0007-.0219,.4077-.0014,.4833,.1181,.4735,.4916-.0249,.9584-.0071,.9588-.968,.9588-2.7597,0-5.5193,0-8.279,.0003Z"/>
  <path class="b" d="M23.0747,13.8502c0-.059,.0086-.1196-.0014-.1769-.0634-.3602,.0452-.5119,.4467-.5892,.9574-.1842,1.4987-.8343,1.6564-1.7823,.0385-.2317,.1092-.2967,.3228-.2755,.1462,.0145,.295,.0028,.4426,.0028q.7495,0,.6036,.7278c-.2983,1.4885-1.5704,2.6414-3.0928,2.8112-.2525,.0282-.4388,.0183-.3814-.3199,.0219-.1291,.0036-.2651,.0035-.398Z"/>
</svg>